{
  "accessors": [
    {
      "bufferView": 0, 
      "byteOffset": 0, 
      "componentType": 5126, 
      "count": 24, 
      "max": [
        65.1, 
        2.1, 
        2.85
      ], 
      "min": [
        -0.1, 
        -2.1, 
        -2.85
      ], 
      "type": "VEC3"
    }, 
    {
      "bufferView": 1, 
      "byteOffset": 0, 
      "componentType": 5121, 
      "count": 132, 
      "type": "SCALAR"
    }, 
    {
      "bufferView": 2, 
      "byteOffset": 0, 
      "componentType": 5126, 
      "count": 8, 
      "max": [
        32.6, 
        0.975, 
        15.1
      ], 
      "min": [
        -32.6, 
        -0.1, 
        -15.1
      ], 
      "type": "VEC3"
    }, 
    {
      "bufferView": 3, 
      "byteOffset": 0, 
      "componentType": 5121, 
      "count": 36, 
      "type": "SCALAR"
    }, 
    {
      "bufferView": 4, 
      "byteOffset": 0, 
      "componentType": 5126, 
      "count": 112, 
      "max": [
        32.1, 
        0.6, 
        0.6
      ], 
      "min": [
        -0.1, 
        -0.6, 
        -0.6
      ], 
      "type": "VEC3"
    }, 
    {
      "bufferView": 5, 
      "byteOffset": 0, 
      "componentType": 5121, 
      "count": 672, 
      "type": "SCALAR"
    }, 
    {
      "bufferView": 6, 
      "byteOffset": 0, 
      "componentType": 5126, 
      "count": 112, 
      "max": [
        32.1, 
        0.6, 
        0.6
      ], 
      "min": [
        -0.1, 
        -0.6, 
        -0.6
      ], 
      "type": "VEC3"
    }, 
    {
      "bufferView": 7, 
      "byteOffset": 0, 
      "componentType": 5121, 
      "count": 672, 
      "type": "SCALAR"
    }, 
    {
      "bufferView": 8, 
      "byteOffset": 0, 
      "componentType": 5126, 
      "count": 112, 
      "max": [
        32.1, 
        0.6, 
        0.6
      ], 
      "min": [
        -0.1, 
        -0.6, 
        -0.6
      ], 
      "type": "VEC3"
    }, 
    {
      "bufferView": 9, 
      "byteOffset": 0, 
      "componentType": 5121, 
      "count": 672, 
      "type": "SCALAR"
    }, 
    {
      "bufferView": 10, 
      "byteOffset": 0, 
      "componentType": 5126, 
      "count": 112, 
      "max": [
        32.1, 
        0.6, 
        0.6
      ], 
      "min": [
        -0.1, 
        -0.6, 
        -0.6
      ], 
      "type": "VEC3"
    }, 
    {
      "bufferView": 11, 
      "byteOffset": 0, 
      "componentType": 5121, 
      "count": 672, 
      "type": "SCALAR"
    }
  ], 
  "asset": {
    "generator": "cqparts_0.1.0", 
    "version": "2.0"
  }, 
  "bufferViews": [
    {
      "buffer": 0, 
      "byteLength": 288, 
      "byteOffset": 0, 
      "byteStride": 12, 
      "target": 34962
    }, 
    {
      "buffer": 0, 
      "byteLength": 132, 
      "byteOffset": 288, 
      "target": 34963
    }, 
    {
      "buffer": 1, 
      "byteLength": 96, 
      "byteOffset": 0, 
      "byteStride": 12, 
      "target": 34962
    }, 
    {
      "buffer": 1, 
      "byteLength": 36, 
      "byteOffset": 96, 
      "target": 34963
    }, 
    {
      "buffer": 2, 
      "byteLength": 1344, 
      "byteOffset": 0, 
      "byteStride": 12, 
      "target": 34962
    }, 
    {
      "buffer": 2, 
      "byteLength": 672, 
      "byteOffset": 1344, 
      "target": 34963
    }, 
    {
      "buffer": 3, 
      "byteLength": 1344, 
      "byteOffset": 0, 
      "byteStride": 12, 
      "target": 34962
    }, 
    {
      "buffer": 3, 
      "byteLength": 672, 
      "byteOffset": 1344, 
      "target": 34963
    }, 
    {
      "buffer": 4, 
      "byteLength": 1344, 
      "byteOffset": 0, 
      "byteStride": 12, 
      "target": 34962
    }, 
    {
      "buffer": 4, 
      "byteLength": 672, 
      "byteOffset": 1344, 
      "target": 34963
    }, 
    {
      "buffer": 5, 
      "byteLength": 1344, 
      "byteOffset": 0, 
      "byteStride": 12, 
      "target": 34962
    }, 
    {
      "buffer": 5, 
      "byteLength": 672, 
      "byteOffset": 1344, 
      "target": 34963
    }
  ], 
  "buffers": [
    {
      "byteLength": 420, 
      "uri": "data:application/octet-stream;base64,"
    }, 
    {
      "byteLength": 132, 
      "uri": "data:application/octet-stream;base64,"
    }, 
    {
      "byteLength": 2016, 
      "uri": "data:application/octet-stream;base64,"
    }, 
    {
      "byteLength": 2016, 
      "uri": "data:application/octet-stream;base64,"
    }, 
    {
      "byteLength": 2016, 
      "uri": "data:application/octet-stream;base64,"
    }, 
    {
      "byteLength": 2016, 
      "uri": "data:application/octet-stream;base64,"
    }
  ], 
  "materials": [
    {
      "alphaCutoff": 1.0, 
      "alphaMode": "MASK", 
      "pbrMetallicRoughness": {
        "baseColorFactor": [
          0.7529, 
          0.7529, 
          0.7529, 
          1.0
        ], 
        "metallicFactor": 0.1, 
        "roughnessFactor": 0.7
      }
    }, 
    {
      "alphaCutoff": 1.0, 
      "alphaMode": "MASK", 
      "pbrMetallicRoughness": {
        "baseColorFactor": [
          0.9216, 
          0.5961, 
          0.3059, 
          1.0
        ], 
        "metallicFactor": 0.1, 
        "roughnessFactor": 0.7
      }
    }, 
    {
      "alphaCutoff": 1.0, 
      "alphaMode": "MASK", 
      "pbrMetallicRoughness": {
        "baseColorFactor": [
          0.7529, 
          0.7529, 
          0.7529, 
          1.0
        ], 
        "metallicFactor": 0.1, 
        "roughnessFactor": 0.7
      }
    }, 
    {
      "alphaCutoff": 1.0, 
      "alphaMode": "MASK", 
      "pbrMetallicRoughness": {
        "baseColorFactor": [
          0.7529, 
          0.7529, 
          0.7529, 
          1.0
        ], 
        "metallicFactor": 0.1, 
        "roughnessFactor": 0.7
      }
    }, 
    {
      "alphaCutoff": 1.0, 
      "alphaMode": "MASK", 
      "pbrMetallicRoughness": {
        "baseColorFactor": [
          0.7529, 
          0.7529, 
          0.7529, 
          1.0
        ], 
        "metallicFactor": 0.1, 
        "roughnessFactor": 0.7
      }
    }, 
    {
      "alphaCutoff": 1.0, 
      "alphaMode": "MASK", 
      "pbrMetallicRoughness": {
        "baseColorFactor": [
          0.7529, 
          0.7529, 
          0.7529, 
          1.0
        ], 
        "metallicFactor": 0.1, 
        "roughnessFactor": 0.7
      }
    }
  ], 
  "meshes": [
    {
      "name": "desk.Tray", 
      "primitives": [
        {
          "attributes": {
            "POSITION": 0
          }, 
          "indices": 1, 
          "material": 0, 
          "mode": 4
        }
      ]
    }, 
    {
      "name": "desk.TableTop", 
      "primitives": [
        {
          "attributes": {
            "POSITION": 2
          }, 
          "indices": 3, 
          "material": 1, 
          "mode": 4
        }
      ]
    }, 
    {
      "name": "desk.Leg1", 
      "primitives": [
        {
          "attributes": {
            "POSITION": 4
          }, 
          "indices": 5, 
          "material": 2, 
          "mode": 4
        }
      ]
    }, 
    {
      "name": "desk.Leg2", 
      "primitives": [
        {
          "attributes": {
            "POSITION": 6
          }, 
          "indices": 7, 
          "material": 3, 
          "mode": 4
        }
      ]
    }, 
    {
      "name": "desk.Leg3", 
      "primitives": [
        {
          "attributes": {
            "POSITION": 8
          }, 
          "indices": 9, 
          "material": 4, 
          "mode": 4
        }
      ]
    }, 
    {
      "name": "desk.Leg4", 
      "primitives": [
        {
          "attributes": {
            "POSITION": 10
          }, 
          "indices": 11, 
          "material": 5, 
          "mode": 4
        }
      ]
    }
  ], 
  "nodes": [
    {
      "children": [
        1
      ], 
      "matrix": [
        0.001, 
        0.0, 
        0.0, 
        0.0, 
        0.0, 
        0.0, 
        -0.001, 
        0.0, 
        0.0, 
        0.001, 
        0.0, 
        0.0, 
        0.0, 
        0.0, 
        0.0, 
        1.0
      ]
    }, 
    {
      "children": [
        2, 
        3, 
        4, 
        5, 
        6, 
        7
      ], 
      "matrix": [
        1.0, 
        0.0, 
        0.0, 
        0.0, 
        0.0, 
        1.0, 
        0.0, 
        0.0, 
        0.0, 
        0.0, 
        1.0, 
        0.0, 
        0.0, 
        0.0, 
        0.0, 
        1.0
      ], 
      "name": "desk"
    }, 
    {
      "matrix": [
        1.0, 
        0.0, 
        0.0, 
        0.0, 
        0.0, 
        -1.0, 
        0.0, 
        0.0, 
        0.0, 
        0.0, 
        -1.0, 
        0.0, 
        -32.5, 
        2.0, 
        17.75, 
        1.0
      ], 
      "mesh": 0, 
      "name": "desk.Tray"
    }, 
    {
      "matrix": [
        1.0, 
        0.0, 
        0.0, 
        0.0, 
        0.0, 
        1.0, 
        0.0, 
        0.0, 
        0.0, 
        0.0, 
        1.0, 
        0.0, 
        0.0, 
        0.0, 
        0.0, 
        1.0
      ], 
      "mesh": 1, 
      "name": "desk.TableTop"
    }, 
    {
      "matrix": [
        0.0, 
        -1.0, 
        0.0, 
        0.0, 
        0.0, 
        0.0, 
        -1.0, 
        0.0, 
        1.0, 
        0.0, 
        0.0, 
        0.0, 
        32.0, 
        32.875, 
        14.5, 
        1.0
      ], 
      "mesh": 2, 
      "name": "desk.Leg1"
    }, 
    {
      "matrix": [
        0.0, 
        -1.0, 
        0.0, 
        0.0, 
        0.0, 
        0.0, 
        -1.0, 
        0.0, 
        1.0, 
        0.0, 
        0.0, 
        0.0, 
        32.0, 
        32.875, 
        -14.5, 
        1.0
      ], 
      "mesh": 3, 
      "name": "desk.Leg2"
    }, 
    {
      "matrix": [
        0.0, 
        -1.0, 
        0.0, 
        0.0, 
        0.0, 
        0.0, 
        -1.0, 
        0.0, 
        1.0, 
        0.0, 
        0.0, 
        0.0, 
        -32.0, 
        32.875, 
        14.5, 
        1.0
      ], 
      "mesh": 4, 
      "name": "desk.Leg3"
    }, 
    {
      "matrix": [
        0.0, 
        -1.0, 
        0.0, 
        0.0, 
        0.0, 
        0.0, 
        -1.0, 
        0.0, 
        1.0, 
        0.0, 
        0.0, 
        0.0, 
        -32.0, 
        32.875, 
        -14.5, 
        1.0
      ], 
      "mesh": 5, 
      "name": "desk.Leg4"
    }
  ], 
  "scene": 0, 
  "scenes": [
    {
      "nodes": [
        0
      ]
    }
  ]
}