<?xml version="1.0" encoding="UTF-8" standalone="no"?>
<svg
   xmlns:svg="http://www.w3.org/2000/svg"
   xmlns="http://www.w3.org/2000/svg"
   width="800.0"
   height="600.0"
   style='stroke-width: 0px; background-color: #282a36;'
>
    <g transform="scale(2.0, -2.0)   translate(200.0,-150.0)" stroke-width="0.5"  fill="none">
       <!-- hidden lines -->
       <g  stroke="rgb(160, 160, 160)" display="none" fill="none" stroke-dasharray="0.5,0.5" >
			<path d=" M 0.286732 -0.289648 L -0.286732 -0.576379 " />
			<path d="M0.286732 -0.289648 A0.0945 0.0578693 -116.565 0 1 0.353553 -0.174398" />
			<path d="M-0.286732 -0.576379 A0.0945 0.0578693 63.435 0 0 -0.328993 -0.579063" />
			<path d=" M 0.353553 -0.174398 L 0.353553 0.52795 " />
			<path d="M0.328993 0.579063 A0.0945 0.0578693 63.435 0 0 0.353553 0.52795" />
			<path d=" M 0.264458 0.510682 L -0.264458 0.246225 " />
			<path d="M-0.264458 0.246225 A0.063 0.0385795 -116.565 0 1 -0.309006 0.169391" />
			<path d=" M -0.309006 -0.478396 L -0.309006 0.169391 " />
			<path d="M-0.264458 -0.510682 A0.063 0.0385795 63.435 0 0 -0.292632 -0.512471" />
			<path d="M-0.292632 -0.512471 A0.063 0.0385795 63.435 0 0 -0.309006 -0.478396" />
			<path d=" M 0.264458 -0.246225 L -0.264458 -0.510682 " />
			<path d="M0.264458 -0.246225 A0.063 0.0385795 -116.565 0 1 0.309006 -0.169391" />
			<path d=" M 0.309006 -0.169391 L 0.309006 0.478396 " />
			<path d="M0.264458 0.510682 A0.063 0.0385795 63.435 0 0 0.292632 0.512471" />
			<path d="M0.292632 0.512471 A0.063 0.0385795 63.435 0 0 0.309006 0.478396" />
			<path d=" M -0.292632 -0.512471 L 8.19265 -4.7551 " />
			<path d=" M 0.292632 0.512471 L 8.77791 -3.73016 " />

       </g>
       <!-- solid lines -->
       <!-- <g  stroke="rgb(255, 121, 198)" fill="none"> -->
       <g  stroke="rgb(139, 233, 253)" fill="none">
			<path d=" M -0.328993 -0.579063 L 8.15629 -4.82169 " />
			<path d=" M 0.328993 0.579063 L 8.81427 -3.66356 " />
			<path d="M-0.328993 -0.579063 A0.0945 0.0578693 63.435 0 0 -0.353553 -0.52795" />
			<path d=" M -0.353553 -0.52795 L -0.353553 0.174398 " />
			<path d="M0.286732 0.576379 A0.0945 0.0578693 63.435 0 0 0.328993 0.579063" />
			<path d="M-0.286732 0.289648 A0.0945 0.0578693 -116.565 0 1 -0.353553 0.174398" />
			<path d=" M 0.286732 0.576379 L -0.286732 0.289648 " />
			<path d=" M 8.77201 -4.53228 L 8.19855 -4.81901 " />
			<path d="M8.77201 -4.53228 A0.0945 0.0578693 -116.565 0 1 8.83883 -4.41702" />
			<path d="M8.19855 -4.81901 A0.0945 0.0578693 63.435 0 0 8.15629 -4.82169" />
			<path d="M8.15629 -4.82169 A0.0945 0.0578693 63.435 0 0 8.13173 -4.77058" />
			<path d=" M 8.83883 -4.41702 L 8.83883 -3.71468 " />
			<path d=" M 8.13173 -4.77058 L 8.13173 -4.06823 " />
			<path d="M8.77201 -3.66625 A0.0945 0.0578693 63.435 0 0 8.81427 -3.66356" />
			<path d="M8.81427 -3.66356 A0.0945 0.0578693 63.435 0 0 8.83883 -3.71468" />
			<path d="M8.19855 -3.95298 A0.0945 0.0578693 -116.565 0 1 8.13173 -4.06823" />
			<path d=" M 8.77201 -3.66625 L 8.19855 -3.95298 " />
			<path d=" M 8.74974 -3.73195 L 8.22082 -3.9964 " />
			<path d="M8.22082 -3.9964 A0.063 0.0385795 -116.565 0 1 8.17628 -4.07324" />
			<path d=" M 8.17628 -4.72102 L 8.17628 -4.07324 " />
			<path d="M8.22082 -4.75331 A0.063 0.0385795 63.435 0 0 8.19265 -4.7551" />
			<path d="M8.19265 -4.7551 A0.063 0.0385795 63.435 0 0 8.17628 -4.72102" />
			<path d=" M 8.74974 -4.48885 L 8.22082 -4.75331 " />
			<path d="M8.74974 -4.48885 A0.063 0.0385795 -116.565 0 1 8.79429 -4.41202" />
			<path d=" M 8.79429 -4.41202 L 8.79429 -3.76423 " />
			<path d="M8.74974 -3.73195 A0.063 0.0385795 63.435 0 0 8.77791 -3.73016" />
			<path d="M8.77791 -3.73016 A0.063 0.0385795 63.435 0 0 8.79429 -3.76423" />

       </g>
    </g>
</svg>
